<svg height="512.001pt" viewBox="0 0 512.001 512.001" width="512.001pt" xmlns="http://www.w3.org/2000/svg"><path d="m289.222656 222.777344c-32-32-74.546875-49.621094-119.804687-49.621094-45.253907 0-87.800781 17.621094-119.796875 49.621094-32 32-49.621094 74.546875-49.621094 119.800781v154.421875c0 8.28125 6.714844 15 15 15h154.421875c45.253906 0 87.800781-17.621094 119.800781-49.621094s49.621094-74.546875 49.617188-119.800781c.003906-45.253906-17.617188-87.800781-49.617188-119.800781zm0 0" fill="#ff6c6c"/><path d="m4.394531 507.605469c2.714844 2.714843 6.464844 4.394531 10.605469 4.394531h154.421875c45.253906 0 87.800781-17.621094 119.800781-49.621094s49.621094-74.546875 49.617188-119.800781c.003906-45.253906-17.617188-87.800781-49.617188-119.800781zm0 0" fill="#ff2323"/><path d="m479.507812 173.414062c-11.882812-8.910156-25.855468-15.355468-41.535156-19.15625-8.050781-1.945312-16.160156 2.988282-18.113281 11.042969-.777344 3.214844-.441406 6.433594.734375 9.269531l-125.875 52.144532-7.105469-5.328125c-6.628906-4.972657-16.027343-3.625-21 3-4.972656 6.628906-3.628906 16.03125 3 21l63.96875 47.976562c19.664063 14.746094 45.574219 22.867188 72.964844 22.867188 27.386719 0 53.296875-8.121094 72.960937-22.867188 20.953126-15.71875 32.496094-37.019531 32.492188-59.976562 0-22.957031-11.539062-44.253907-32.492188-59.972657zm0 0" fill="#92be00"/><path d="m357.742188 74.03125c-3.792969-15.671875-10.238282-29.648438-19.15625-41.539062-15.714844-20.953126-37.011719-32.492188-59.972657-32.492188-22.957031.00390625-44.257812 11.539062-59.972656 32.492188-14.75 19.664062-22.871094 45.578124-22.871094 72.964843s8.121094 53.300781 22.871094 72.964844l47.972656 63.964844c2.945313 3.929687 7.449219 6.003906 12.011719 6.003906 3.132812 0 6.289062-.980469 8.988281-3.003906 6.625-4.96875 7.96875-14.371094 3-21l-5.328125-7.105469 52.144532-125.871094c2.835937 1.179688 6.050781 1.511719 9.265624.730469 8.050782-1.949219 13-10.058594 11.046876-18.109375zm0 0" fill="#678c12"/><path d="m446.84375 71.796875c-13.328125-15.367187-32.960938-23.832031-55.28125-23.832031-4.347656 0-8.820312.320312-13.300781.964844-24.335938 3.476562-48.402344 16.054687-67.769531 35.417968-19.363282 19.367188-31.941407 43.433594-35.417969 67.765625l-11.3125 79.152344c-.667969 4.675781.902343 9.390625 4.246093 12.730469 2.832032 2.832031 6.652344 4.390625 10.601563 4.390625.707031 0 1.414063-.046875 2.125-.148438l79.152344-11.308593c24.335937-3.476563 48.402343-16.054688 67.765625-35.421876 19.367187-19.363281 31.945312-43.429687 35.417968-67.761718 3.421876-23.9375-2.34375-45.9375-16.226562-61.949219zm0 0" fill="#92be00"/><path d="m253.640625 487.023438c-3.839844 0-7.675781-1.464844-10.605469-4.390626l-87.355468-87.355468c-5.855469-5.855469-5.855469-15.355469 0-21.210938 5.859374-5.859375 15.355468-5.859375 21.214843 0l87.351563 87.351563c5.859375 5.855469 5.859375 15.355469 0 21.214843-2.925782 2.925782-6.765625 4.390626-10.605469 4.390626zm0 0" fill="#552003"/><path d="m169.421875 512c-3.839844 0-7.675781-1.464844-10.605469-4.394531l-154.421875-154.421875c-5.859375-5.855469-5.859375-15.355469 0-21.210938 5.855469-5.859375 15.355469-5.859375 21.210938 0l154.421875 154.421875c5.859375 5.855469 5.859375 15.351563 0 21.210938-2.925782 2.929687-6.765625 4.394531-10.605469 4.394531zm0 0" fill="#b62900"/><path d="m184.335938 308.527344c-3.835938 0-7.675782-1.464844-10.605469-4.394532l-87.355469-87.351562c-5.855469-5.859375-5.855469-15.355469 0-21.214844 5.859375-5.855468 15.355469-5.859375 21.214844 0l87.355468 87.351563c5.855469 5.855469 5.855469 15.355469 0 21.214843-2.929687 2.929688-6.769531 4.394532-10.609374 4.394532zm0 0" fill="#b62900"/><path d="m443.628906 68.371094-175.621094 175.621094c2.832032 2.832031 6.65625 4.394531 10.605469 4.394531.703125 0 1.414063-.046875 2.121094-.148438l79.152344-11.308593c24.335937-3.480469 48.402343-16.058594 67.769531-35.421876 19.363281-19.363281 31.941406-43.433593 35.414062-67.765624 3.421876-23.933594-2.34375-45.933594-16.226562-61.945313-1.03125-1.191406-2.109375-2.320313-3.214844-3.425781zm0 0" fill="#678c12"/><path d="m180.027344 486.394531-77.210938-77.210937-21.210937 21.210937 77.210937 77.210938c2.929688 2.929687 6.765625 4.394531 10.605469 4.394531s7.679687-1.464844 10.605469-4.394531c5.859375-5.859375 5.859375-15.355469 0-21.210938zm0 0" fill="#552003"/></svg>